<svg width="131" height="52" viewBox="0 0 131 52" fill="none" xmlns="http://www.w3.org/2000/svg">
<rect x="0.5" y="0.5" width="130" height="51" stroke="#1F1E1E"/>
<path d="M41.8828 20.5781H45.2812C46.7552 20.5781 47.8672 20.7917 48.6172 21.2188C49.3672 21.6458 49.7422 22.3828 49.7422 23.4297C49.7422 23.8672 49.6641 24.263 49.5078 24.6172C49.3568 24.9661 49.1354 25.2552 48.8438 25.4844C48.5521 25.7083 48.1927 25.8594 47.7656 25.9375V26.0156C48.2083 26.0938 48.6016 26.2318 48.9453 26.4297C49.2943 26.6276 49.5677 26.9115 49.7656 27.2812C49.9688 27.651 50.0703 28.1302 50.0703 28.7188C50.0703 29.4167 49.9036 30.0104 49.5703 30.5C49.2422 30.9896 48.7708 31.362 48.1562 31.6172C47.5469 31.8724 46.8229 32 45.9844 32H41.8828V20.5781ZM43.7578 25.2891H45.5547C46.4036 25.2891 46.9922 25.151 47.3203 24.875C47.6484 24.599 47.8125 24.1953 47.8125 23.6641C47.8125 23.1224 47.6172 22.7318 47.2266 22.4922C46.8411 22.2526 46.2266 22.1328 45.3828 22.1328H43.7578V25.2891ZM43.7578 26.8047V30.4297H45.7344C46.6094 30.4297 47.224 30.2604 47.5781 29.9219C47.9323 29.5833 48.1094 29.125 48.1094 28.5469C48.1094 28.1927 48.0286 27.8854 47.8672 27.625C47.7109 27.3646 47.4531 27.1641 47.0938 27.0234C46.7344 26.8776 46.25 26.8047 45.6406 26.8047H43.7578ZM59.8984 27.6562C59.8984 28.375 59.8047 29.013 59.6172 29.5703C59.4297 30.1276 59.1562 30.599 58.7969 30.9844C58.4375 31.3646 58.0052 31.6562 57.5 31.8594C56.9948 32.0573 56.4245 32.1562 55.7891 32.1562C55.1953 32.1562 54.651 32.0573 54.1562 31.8594C53.6615 31.6562 53.2318 31.3646 52.8672 30.9844C52.5078 30.599 52.2292 30.1276 52.0312 29.5703C51.8333 29.013 51.7344 28.375 51.7344 27.6562C51.7344 26.7031 51.8984 25.8958 52.2266 25.2344C52.5599 24.5677 53.0339 24.0599 53.6484 23.7109C54.263 23.362 54.9948 23.1875 55.8438 23.1875C56.6406 23.1875 57.3438 23.362 57.9531 23.7109C58.5625 24.0599 59.0391 24.5677 59.3828 25.2344C59.7266 25.901 59.8984 26.7083 59.8984 27.6562ZM53.625 27.6562C53.625 28.2865 53.7005 28.8255 53.8516 29.2734C54.0078 29.7214 54.2474 30.0651 54.5703 30.3047C54.8932 30.5391 55.3099 30.6562 55.8203 30.6562C56.3307 30.6562 56.7474 30.5391 57.0703 30.3047C57.3932 30.0651 57.6302 29.7214 57.7812 29.2734C57.9323 28.8255 58.0078 28.2865 58.0078 27.6562C58.0078 27.026 57.9323 26.4922 57.7812 26.0547C57.6302 25.612 57.3932 25.276 57.0703 25.0469C56.7474 24.8125 56.3281 24.6953 55.8125 24.6953C55.0521 24.6953 54.4974 24.9505 54.1484 25.4609C53.7995 25.9714 53.625 26.7031 53.625 27.6562ZM63.7734 23.3516V27.7656C63.7734 27.9062 63.7682 28.0859 63.7578 28.3047C63.7526 28.5182 63.7422 28.7422 63.7266 28.9766C63.7109 29.2057 63.6953 29.4167 63.6797 29.6094C63.6641 29.8021 63.651 29.9453 63.6406 30.0391L67.9922 23.3516H70.2266V32H68.4688V27.6328C68.4688 27.4036 68.474 27.138 68.4844 26.8359C68.5 26.5339 68.5156 26.2422 68.5312 25.9609C68.5521 25.6797 68.5651 25.4661 68.5703 25.3203L64.2344 32H62.0078V23.3516H63.7734ZM69.5781 19.7109C69.526 20.2474 69.3802 20.7109 69.1406 21.1016C68.9062 21.487 68.5495 21.7839 68.0703 21.9922C67.5911 22.2005 66.9609 22.3047 66.1797 22.3047C65.3724 22.3047 64.7344 22.2057 64.2656 22.0078C63.7969 21.8047 63.4583 21.5104 63.25 21.125C63.0417 20.7344 62.9167 20.263 62.875 19.7109H64.5469C64.599 20.2891 64.75 20.6797 65 20.8828C65.25 21.0807 65.6536 21.1797 66.2109 21.1797C66.6901 21.1797 67.0729 21.0729 67.3594 20.8594C67.651 20.6458 67.8255 20.263 67.8828 19.7109H69.5781ZM79.3984 24.7969H76.5547V32H74.7266V24.7969H71.8984V23.3516H79.3984V24.7969ZM82.8359 23.3516V27.7656C82.8359 27.9062 82.8307 28.0859 82.8203 28.3047C82.8151 28.5182 82.8047 28.7422 82.7891 28.9766C82.7734 29.2057 82.7578 29.4167 82.7422 29.6094C82.7266 29.8021 82.7135 29.9453 82.7031 30.0391L87.0547 23.3516H89.2891V32H87.5312V27.6328C87.5312 27.4036 87.5365 27.138 87.5469 26.8359C87.5625 26.5339 87.5781 26.2422 87.5938 25.9609C87.6146 25.6797 87.6276 25.4661 87.6328 25.3203L83.2969 32H81.0703V23.3516H82.8359Z" fill="#1F1E1E"/>
</svg>
